<svg width="23" height="23" viewBox="0 0 23 23" fill="none" xmlns="http://www.w3.org/2000/svg">
<path opacity="0.3" d="M17.2501 13.4167C15.6623 13.4167 14.3751 12.1295 14.3751 10.5417C14.3751 8.95385 15.6623 7.66667 17.2501 7.66667C18.8379 7.66667 20.1251 8.95385 20.1251 10.5417C20.1251 12.1295 18.8379 13.4167 17.2501 13.4167ZM8.62508 10.5417C6.50799 10.5417 4.79175 8.82543 4.79175 6.70833C4.79175 4.59124 6.50799 2.875 8.62508 2.875C10.7422 2.875 12.4584 4.59124 12.4584 6.70833C12.4584 8.82543 10.7422 10.5417 8.62508 10.5417Z" fill="black"/>
<path d="M16.8678 14.3756C20.1324 14.4113 22.798 16.0618 22.9986 19.55C23.0066 19.6905 22.9986 20.125 22.4786 20.125H18.7833C18.7833 17.9678 18.0706 15.9772 16.8678 14.3756ZM0.000624531 19.3576C0.372081 14.7837 4.08433 12.4583 8.60904 12.4583C13.1974 12.4583 16.9672 14.656 17.248 19.3583C17.2592 19.5457 17.248 20.125 16.5281 20.125C12.9769 20.125 7.69994 20.125 0.69719 20.125C0.456849 20.125 -0.0196092 19.6067 0.000624531 19.3576Z" fill="black"/>
</svg>
