<svg width="20" height="20" viewBox="0 0 20 20" fill="none" xmlns="http://www.w3.org/2000/svg">
<path opacity="0.3" d="M14.9998 6.66667H13.3332C12.8729 6.66667 12.4998 6.29357 12.4998 5.83333C12.4998 5.3731 12.8729 5 13.3332 5H14.9998V3.33333C14.9998 2.8731 15.3729 2.5 15.8332 2.5C16.2934 2.5 16.6665 2.8731 16.6665 3.33333V5H18.3332C18.7934 5 19.1665 5.3731 19.1665 5.83333C19.1665 6.29357 18.7934 6.66667 18.3332 6.66667H16.6665V8.33333C16.6665 8.79357 16.2934 9.16667 15.8332 9.16667C15.3729 9.16667 14.9998 8.79357 14.9998 8.33333V6.66667ZM7.49984 9.16667C5.65889 9.16667 4.1665 7.67428 4.1665 5.83333C4.1665 3.99238 5.65889 2.5 7.49984 2.5C9.34079 2.5 10.8332 3.99238 10.8332 5.83333C10.8332 7.67428 9.34079 9.16667 7.49984 9.16667Z" fill="black"/>
<path d="M0.00054307 16.8327C0.323549 12.8554 3.55159 10.8333 7.48612 10.8333C11.476 10.8333 14.7541 12.7443 14.9983 16.8333C15.008 16.9962 14.9983 17.5 14.3722 17.5C11.2843 17.5 6.6956 17.5 0.606252 17.5C0.39726 17.5 -0.0170515 17.0493 0.00054307 16.8327Z" fill="black"/>
</svg>
