<svg width="20" height="20" viewBox="0 0 20 20" fill="none" xmlns="http://www.w3.org/2000/svg">
<path d="M13.5361 5.28598L5.28652 13.5356C4.96108 13.861 4.96108 14.3886 5.28652 14.7141C5.61196 15.0395 6.1396 15.0395 6.46503 14.7141L14.7146 6.46449C15.04 6.13906 15.04 5.61142 14.7146 5.28598C14.3892 4.96055 13.8615 4.96055 13.5361 5.28598Z" fill="black"/>
<path opacity="0.3" d="M14.7148 13.5356L6.46523 5.28597C6.1398 4.96054 5.61216 4.96054 5.28672 5.28597C4.96128 5.61141 4.96128 6.13905 5.28672 6.46448L13.5363 14.7141C13.8617 15.0395 14.3894 15.0395 14.7148 14.7141C15.0402 14.3886 15.0402 13.861 14.7148 13.5356Z" fill="black"/>
</svg>
