<svg width="23" height="23" viewBox="0 0 23 23" fill="none" xmlns="http://www.w3.org/2000/svg">
<path opacity="0.3" d="M13.4176 6.70834C13.4176 7.23762 13.8465 7.66668 14.3755 7.66668C14.9046 7.66668 15.3334 7.23762 15.3334 6.70834L15.3334 5.75001C15.3334 3.63292 13.6179 1.91668 11.5018 1.91668H5.75509C3.63892 1.91668 1.92342 3.63292 1.92342 5.75001L1.92342 17.25C1.92342 19.3671 3.63892 21.0833 5.75509 21.0833H11.5084C13.6246 21.0833 15.3401 19.3671 15.3401 17.25V16.2917C15.3401 15.7624 14.9112 15.3333 14.3822 15.3333C13.8531 15.3333 13.4243 15.7624 13.4243 16.2917V17.25C13.4243 18.3086 12.5665 19.1667 11.5084 19.1667H5.75509C4.69701 19.1667 3.83926 18.3086 3.83926 17.25L3.83926 5.75001C3.83926 4.69147 4.69701 3.83334 5.75509 3.83334H11.5018C12.5599 3.83334 13.4176 4.69147 13.4176 5.75001V6.70834Z" fill="black"/>
<path opacity="0.3" d="M18.2084 12.4583C18.7377 12.4583 19.1667 12.0293 19.1667 11.5C19.1667 10.9707 18.7377 10.5417 18.2084 10.5417L8.62508 10.5417C8.09581 10.5417 7.66675 10.9707 7.66675 11.5C7.66675 12.0293 8.09581 12.4583 8.62508 12.4583L18.2084 12.4583Z" fill="black"/>
<path d="M16.5724 9.30266C16.1982 8.9284 16.1982 8.32162 16.5724 7.94737C16.9467 7.57311 17.5535 7.57311 17.9277 7.94737L20.8027 10.8224C21.177 11.1966 21.177 11.8034 20.8027 12.1777L17.9277 15.0527C17.5535 15.4269 16.9467 15.4269 16.5724 15.0527C16.1982 14.6784 16.1982 14.0716 16.5724 13.6974L18.7698 11.5L16.5724 9.30266Z" fill="black"/>
</svg>
