<svg width="23" height="23" viewBox="0 0 23 23" fill="none" xmlns="http://www.w3.org/2000/svg">
<path opacity="0.3" d="M18.2083 15.3333V11.5C18.2083 7.79509 15.2049 4.79167 11.5 4.79167C7.79509 4.79167 4.79167 7.79509 4.79167 11.5V15.3333H18.2083ZM20.125 15.3333H2.875V11.5C2.875 6.73654 6.73654 2.875 11.5 2.875C16.2635 2.875 20.125 6.73654 20.125 11.5V15.3333Z" fill="black"/>
<path fill-rule="evenodd" clip-rule="evenodd" d="M4.79167 13.4167H5.75C6.80855 13.4167 7.66667 14.2748 7.66667 15.3333V18.2083C7.66667 19.2669 6.80855 20.125 5.75 20.125H4.79167C3.73312 20.125 2.875 19.2669 2.875 18.2083V15.3333C2.875 14.2748 3.73312 13.4167 4.79167 13.4167ZM17.25 13.4167H18.2083C19.2669 13.4167 20.125 14.2748 20.125 15.3333V18.2083C20.125 19.2669 19.2669 20.125 18.2083 20.125H17.25C16.1915 20.125 15.3333 19.2669 15.3333 18.2083V15.3333C15.3333 14.2748 16.1915 13.4167 17.25 13.4167Z" fill="black"/>
</svg>
