<svg width="23" height="23" viewBox="0 0 23 23" fill="none" xmlns="http://www.w3.org/2000/svg">
<path d="M12.3947 15.4028L18.5533 10.5L18.7049 10.3799C19.3273 9.88708 19.4323 8.98298 18.9395 8.36058C18.8712 8.2744 18.7933 8.19633 18.7073 8.1279L12.3948 3.10746C11.871 2.69088 11.129 2.69088 10.6052 3.10746L4.28838 8.13135C3.66702 8.62552 3.56392 9.52984 4.0581 10.1512C4.12563 10.2361 4.20256 10.3131 4.28742 10.3807L4.43709 10.5L10.6048 15.4033C11.1288 15.8199 11.871 15.8197 12.3947 15.4028Z" fill="black"/>
<path opacity="0.3" fill-rule="evenodd" clip-rule="evenodd" d="M10.5958 17.8928L5.11371 13.5345C4.73959 13.237 4.19518 13.2992 3.89775 13.6733C3.89546 13.6762 3.89319 13.6791 3.89094 13.682C3.59633 14.0624 3.6659 14.6097 4.04634 14.9043C4.04772 14.9054 4.0491 14.9064 4.05048 14.9075L10.6254 19.9363C11.1408 20.3305 11.8564 20.3306 12.3718 19.9365L18.9442 14.9115C19.329 14.6173 19.4025 14.0668 19.1083 13.682C19.107 13.6804 19.1058 13.6787 19.1045 13.6771C18.809 13.2963 18.2608 13.2271 17.88 13.5225C17.8772 13.5247 17.8744 13.5269 17.8717 13.529L12.3851 17.8926C11.8614 18.3091 11.1196 18.3092 10.5958 17.8928Z" fill="black"/>
</svg>
