<svg width="20" height="20" viewBox="0 0 20 20" fill="none" xmlns="http://www.w3.org/2000/svg">
<path d="M5 6.66666V17.0833C5 17.7737 5.55964 18.3333 6.25 18.3333H13.75C14.4404 18.3333 15 17.7737 15 17.0833V6.66666H5Z" fill="black"/>
<path opacity="0.3" fill-rule="evenodd" clip-rule="evenodd" d="M11.6665 3.75V3.33333C11.6665 2.8731 11.2934 2.5 10.8332 2.5H9.1665C8.70627 2.5 8.33317 2.8731 8.33317 3.33333V3.75H4.58317C4.35305 3.75 4.1665 3.93655 4.1665 4.16667V4.58333C4.1665 4.81345 4.35305 5 4.58317 5H15.4165C15.6466 5 15.8332 4.81345 15.8332 4.58333V4.16667C15.8332 3.93655 15.6466 3.75 15.4165 3.75H11.6665Z" fill="black"/>
</svg>
