<svg width="20" height="20" viewBox="0 0 20 20" fill="none" xmlns="http://www.w3.org/2000/svg">
<path d="M16.604 7.03287L9.56357 14.0733C9.32613 14.3107 9.00315 14.4426 8.66739 14.4393L5.73128 14.4104C5.05794 14.4038 4.51085 13.865 4.49397 13.1918L4.42235 10.3359C4.41377 9.99361 4.54597 9.66278 4.78808 9.42067L11.8899 2.31883C12.3781 1.83067 13.1695 1.83067 13.6577 2.31883L16.604 5.2651C17.0921 5.75326 17.0921 6.54472 16.604 7.03287Z" fill="black"/>
<path opacity="0.3" d="M15.8332 16.6667H4.99984C4.5396 16.6667 4.1665 17.0398 4.1665 17.5C4.1665 17.9602 4.5396 18.3333 4.99984 18.3333H15.8332C16.2934 18.3333 16.6665 17.9602 16.6665 17.5C16.6665 17.0398 16.2934 16.6667 15.8332 16.6667Z" fill="black"/>
</svg>
