<svg width="23" height="23" viewBox="0 0 23 23" fill="none" xmlns="http://www.w3.org/2000/svg">
<path fill-rule="evenodd" clip-rule="evenodd" d="M15.2852 3.64895L12.4819 6.45221C11.7334 7.20071 11.7334 8.41428 12.4819 9.16278L13.8372 10.5181C14.5857 11.2666 15.7993 11.2666 16.5478 10.5181L19.351 7.71482C19.8702 9.62625 19.3867 11.745 17.8965 13.2353C16.1435 14.9883 13.5207 15.3482 11.3888 14.3217L6.47581 19.2348C5.72731 19.9833 4.51374 19.9833 3.76524 19.2348C3.01673 18.4863 3.01673 17.2727 3.76524 16.5242L8.67826 11.6112C7.65179 9.47929 8.01173 6.85655 9.76473 5.10354C11.255 3.6133 13.3738 3.1298 15.2852 3.64895Z" fill="black"/>
<path opacity="0.3" fill-rule="evenodd" clip-rule="evenodd" d="M15.9628 5.6819L17.3181 7.03719C17.6923 7.41144 17.6923 8.01823 17.3181 8.39248L15.9959 9.71467C15.6217 10.0889 15.0149 10.0889 14.6406 9.71467L13.2853 8.35938C12.9111 7.98513 12.9111 7.37834 13.2853 7.00409L14.6075 5.6819C14.9818 5.30765 15.5886 5.30765 15.9628 5.6819Z" fill="black"/>
</svg>
