<svg width="17" height="18" viewBox="0 0 17 18" fill="none" xmlns="http://www.w3.org/2000/svg">
<path fill-rule="evenodd" clip-rule="evenodd" d="M13.2916 9.5H14.7291C15.523 9.5 16.1666 10.1436 16.1666 10.9375C16.1666 11.7314 15.523 12.375 14.7291 12.375H2.27075C1.47684 12.375 0.833252 11.7314 0.833252 10.9375C0.833252 10.1436 1.47684 9.5 2.27075 9.5H3.70825L4.24326 4.68489C4.48426 2.51591 6.3176 0.875 8.49992 0.875C10.6822 0.875 12.5156 2.51591 12.7566 4.68489L13.2916 9.5Z" fill="black"/>
<path opacity="0.3" d="M10.4166 15.25C10.4166 14.1915 9.55846 13.3333 8.49992 13.3333C7.44137 13.3333 6.58325 14.1915 6.58325 15.25C6.58325 16.3086 7.44137 17.1667 8.49992 17.1667C9.55846 17.1667 10.4166 16.3086 10.4166 15.25Z" fill="black"/>
</svg>
