<svg width="20" height="20" viewBox="0 0 20 20" fill="none" xmlns="http://www.w3.org/2000/svg">
<path d="M14.1663 3.33331H4.99967C3.99227 3.33331 3.33301 3.91665 3.33301 4.99998V15C3.33301 16.0833 3.99227 16.6666 4.99967 16.6666H14.9997C15.9997 16.6666 16.6663 16.0833 16.6663 15V6.0059C16.6663 5.89539 16.6224 5.78941 16.5443 5.71127L14.1663 3.33331ZM14.1663 9.16665H5.83301V3.33331H14.1663V9.16665Z" fill="black"/>
<path opacity="0.3" d="M12.0833 3.33331H10.4167C10.1865 3.33331 10 3.51986 10 3.74998V7.08331C10 7.31343 10.1865 7.49998 10.4167 7.49998H12.0833C12.3135 7.49998 12.5 7.31343 12.5 7.08331V3.74998C12.5 3.51986 12.3135 3.33331 12.0833 3.33331Z" fill="black"/>
</svg>
