<svg width="26" height="26" viewBox="0 0 26 26" fill="none" xmlns="http://www.w3.org/2000/svg">
<path d="M13.766 7.26603C14.189 6.84296 14.189 6.15703 13.766 5.73396C13.3429 5.3109 12.657 5.3109 12.2339 5.73396L5.73389 12.234C5.32376 12.6441 5.30941 13.3045 5.70133 13.732L11.6597 20.232C12.064 20.6731 12.7492 20.7029 13.1903 20.2986C13.6313 19.8943 13.6611 19.209 13.2568 18.768L7.9994 13.0326L13.766 7.26603Z" fill="black"/>
<path opacity="0.3" d="M21.3494 7.26603C21.7724 6.84296 21.7724 6.15703 21.3494 5.73396C20.9263 5.3109 20.2404 5.3109 19.8173 5.73396L13.3173 12.234C12.9072 12.6441 12.8928 13.3045 13.2848 13.732L19.2431 20.232C19.6474 20.6731 20.3327 20.7029 20.7737 20.2986C21.2147 19.8943 21.2445 19.209 20.8403 18.768L15.5828 13.0326L21.3494 7.26603Z" fill="black"/>
</svg>
