<svg width="26" height="26" viewBox="0 0 26 26" fill="none" xmlns="http://www.w3.org/2000/svg">
<path opacity="0.3" fill-rule="evenodd" clip-rule="evenodd" d="M2.77429 11.5721L5.07239 9.27405C5.70699 8.63945 6.73588 8.63945 7.37049 9.27405L9.66858 11.5721C10.3032 12.2067 10.3032 13.2356 9.66858 13.8702L7.37049 16.1683C6.73588 16.8029 5.70699 16.8029 5.07239 16.1683L2.77429 13.8702C2.13969 13.2356 2.13969 12.2067 2.77429 11.5721ZM15.7743 11.5721L18.0724 9.27405C18.707 8.63945 19.7359 8.63945 20.3705 9.27405L22.6686 11.5721C23.3032 12.2067 23.3032 13.2356 22.6686 13.8702L20.3705 16.1683C19.7359 16.8029 18.707 16.8029 18.0724 16.1683L15.7743 13.8702C15.1397 13.2356 15.1397 12.2067 15.7743 11.5721Z" fill="black"/>
<path fill-rule="evenodd" clip-rule="evenodd" d="M9.27429 18.0721L11.5724 15.774C12.207 15.1394 13.2359 15.1394 13.8705 15.774L16.1686 18.0721C16.8032 18.7067 16.8032 19.7356 16.1686 20.3702L13.8705 22.6683C13.2359 23.3029 12.207 23.3029 11.5724 22.6683L9.27429 20.3702C8.63969 19.7356 8.63969 18.7067 9.27429 18.0721ZM9.27429 5.07215L11.5724 2.77405C12.207 2.13945 13.2359 2.13945 13.8705 2.77405L16.1686 5.07215C16.8032 5.70675 16.8032 6.73564 16.1686 7.37024L13.8705 9.66834C13.2359 10.3029 12.207 10.3029 11.5724 9.66834L9.27429 7.37024C8.63969 6.73564 8.63969 5.70675 9.27429 5.07215Z" fill="black"/>
</svg>
