<svg width="23" height="23" viewBox="0 0 23 23" fill="none" xmlns="http://www.w3.org/2000/svg">
<path d="M5.75009 7.66667V15.3333H17.2501V7.66667H5.75009ZM19.1668 15.3333H20.4911C20.8541 15.3333 21.186 15.5384 21.3483 15.8631L21.5626 16.2917C21.7261 16.6188 21.5936 17.0165 21.2664 17.1801C21.1745 17.2261 21.0731 17.25 20.9703 17.25H2.02987C1.66415 17.25 1.36768 16.9535 1.36768 16.5878C1.36768 16.485 1.39161 16.3836 1.43759 16.2917L1.65188 15.8631C1.81421 15.5384 2.14604 15.3333 2.50903 15.3333H3.83342V7.66667C3.83342 6.60812 4.69154 5.75 5.75009 5.75H17.2501C18.3086 5.75 19.1668 6.60812 19.1668 7.66667V15.3333Z" fill="black"/>
<path opacity="0.3" fill-rule="evenodd" clip-rule="evenodd" d="M5.75 7.66667V15.3333H17.25V7.66667H5.75Z" fill="black"/>
</svg>
